<svg width="51.99999999999999" height="51.99999999999999" xmlns="http://www.w3.org/2000/svg">

 <g>
  <title>background</title>
  <rect fill="none" id="canvas_background" height="402" width="582" y="-1" x="-1"/>
 </g>
 <g>
  <title>Layer 1</title>
  <path id="svg_2" fill="#9b9b9b" d="m49.65096,21.64106c-0.19001,-0.27002 -0.49,-0.42999 -0.81995,-0.42999l-8.5177,0.00988l-2.73535,-0.31353l0.953,-2.54639c0.09003,-0.25 0.08002,-0.51996 -0.02997,-0.76996c-0.10998,-0.24005 -0.31,-0.42004 -0.56,-0.52002l-22.48004,-8.41003c-0.51995,-0.19001 -1.08996,0.07 -1.28997,0.59002l-5.59998,14.98999c-0.20001,0.51001 0.07001,1.09003 0.57996,1.28003l14.01581,5.24341l0,4.63599l-12.99579,0l0,-1.38941c0,-2.54004 -2.07001,-4.60998 -4.60999,-4.60998l-3.39001,0l0,14l3.39001,0c2.53998,0 4.60999,-2.07001 4.60999,-4.61005l0,-1.39056l14.99579,0l0,-5.88776l6.46423,2.41834c0.11999,0.03998 0.23999,0.07001 0.34997,0.07001c0.41004,0 0.79004,-0.25 0.94,-0.65003l1.53687,-4.10651l3.39307,-0.36596l6.12005,5.33252c0.18,0.15997 0.42005,0.23999 0.65003,0.23999c0.08996,0 0.16998,-0.01001 0.25,-0.03003c0.32,-0.07996 0.58001,-0.31 0.69,-0.62l4.20001,-11.23999c0.12,-0.29999 0.07996,-0.65002 -0.11004,-0.91998zm-27.55548,-4.86902c-0.15625,0.39062 -0.53223,0.62891 -0.92871,0.62891c-0.12403,0 -0.25,-0.02344 -0.3711,-0.07178l-2.5,-1c-0.51269,-0.20557 -0.76269,-0.78711 -0.55762,-1.30029c0.20508,-0.5127 0.79102,-0.76123 1.29981,-0.55713l2.5,1c0.51269,0.20556 0.76269,0.78711 0.55762,1.30029z"/>
 </g>
</svg>