<svg width="48" height="48" xmlns="http://www.w3.org/2000/svg">

 <g>
  <title>background</title>
  <rect fill="none" id="canvas_background" height="402" width="582" y="-1" x="-1"/>
 </g>
 <g>
  <title>Layer 1</title>
  <path fill-opacity="0" id="svg_1" fill="#000000" d="m0.071856,0l48,0l0,48l-48,0l0,-48z"/>
  <path fill="#9b9b9b" id="svg_2" d="m31.33,8l-3.33,0c0,-1.33333 0,-1.15769 0,-2.49102c-2.66667,0 -5.26147,0 -8,0l0,2.49102l-3.33,0c-1.48,0 -2.67,1.19 -2.67,2.67l0,30.67c0,1.47 1.19,2.67 2.67,2.67l14.67,0c1.47,0 2.67,-1.19 2.67,-2.67l0,-30.67c-0.01,-1.48 -1.2,-2.67 -2.68,-2.67zm-9.33,32l0,-11l-4,0l8,-15l0,11l4,0l-8,15z"/>
 </g>
</svg>