<svg width="24" height="24" xmlns="http://www.w3.org/2000/svg">

 <g>
  <title>background</title>
  <rect fill="none" id="canvas_background" height="402" width="582" y="-1" x="-1"/>
 </g>
 <g>
  <title fill="#9b9b9b">Layer 1</title>
  <path fill="#9b9b9b" id="svg_2" d="m23.4,5.9l-10.4,-5.6c-0.4,-0.1 -0.6,-0.3 -1,-0.3s-0.6,0.2 -1,0.3l-10.2,5.7c-0.5,0.2 -1,0.8 -0.6,1.4c0.4,0.6 1,0.5 1.4,0.3l0.4,-0.2l0,16.5l2,0l16,0l2,0l0,-16.5l0.2,0.1c0.4,0.3 1.4,0.4 1.7,-0.2c0.4,-0.6 0.1,-1.2 -0.5,-1.5zm-14.4,16.1c0.6,0 1,-0.4 1,-1l0,-1l4,0l0,1c0,0.6 0.4,1 1,1l-6,0zm-3,-5c0,-0.6 0.4,-1 1,-1l10,0c0.6,0 1,0.4 1,1l0,2l-1,0l-2,0l-6,0l-2,0l-1,0l0,-2zm2,-2l0.9,-3l6.4,0l0.8,3l-8.1,0zm7,5l2,0l0,1l-2,0l0,-1zm-8,0l2,0l0,1l-2,0l0,-1zm13,2l-3,0c0.6,0 1,-0.4 1,-1l0,-1c0.6,0 1,-0.4 1,-1l0,-2c0,-1 -0.8,-1.9 -1.8,-2l-1.2,-4l-8,0l-1.2,4c-1,0.1 -1.8,1 -1.8,2l0,2c0,0.6 0.4,1 1,1l0,1c0,0.6 0.4,1 1,1l-3,0l0,-15.6l8,-4.4l8,4.4l0,15.6z"/>
  <circle fill="#9b9b9b" id="svg_3" r="0.5" cy="17.5" cx="7.5"/>
  <circle fill="#9b9b9b" id="svg_4" r="0.5" cy="17.5" cx="16.5"/>
  <path fill="#9b9b9b" id="svg_5" d="m9.5,18l5,0c0.3,0 0.5,-0.2 0.5,-0.5s-0.2,-0.5 -0.5,-0.5l-5,0c-0.3,0 -0.5,0.2 -0.5,0.5s0.2,0.5 0.5,0.5z"/>
 </g>
</svg>