<svg width="74" height="74" xmlns="http://www.w3.org/2000/svg">

 <g>
  <title>background</title>
  <rect fill="none" id="canvas_background" height="402" width="582" y="-1" x="-1"/>
 </g>
 <g>
  <title fill="#9b9b9b">Layer 1</title>
  <path fill="#9b9b9b" id="svg_2" d="m56.8,35.2c0,-5.6 -2.4,-11 -6.6,-14.7c-4.2,-3.7 -9.8,-5.5 -15.4,-4.9c-9.1,1 -16.5,8.4 -17.4,17.5c-0.6,6.1 1.5,12.1 5.9,16.4c1.6,1.6 2.8,3.4 3.5,5.4c-0.8,0.2 -1.4,1 -1.4,1.9c0,1.1 0.9,2 2,2l0,2.3c-1.1,0 -2,0.9 -2,2s0.9,2 2,2l0,0.8c0,4.2 4,7.2 9.7,7.2c5.7,0 9.7,-2.9 9.7,-7.2l0,-0.8c1.1,0 2,-0.9 2,-2s-0.9,-2 -2,-2l0,-2.3c1.1,0 2,-0.9 2,-2c0,-0.9 -0.6,-1.7 -1.4,-1.9c0.7,-2 1.9,-3.8 3.5,-5.4c3.7,-3.8 5.9,-8.9 5.9,-14.3zm-14.1,23.5l0,2.3l-11.4,0l0,-2.3l11.4,0zm-5.7,10.3c-2.3,0 -5.7,-0.8 -5.7,-3.2l0,-0.8l11.4,0l0,0.8c0,2.4 -3.4,3.2 -5.7,3.2zm6.1,-14.3l-12.2,0c-0.8,-3 -2.5,-5.9 -4.9,-8.2c-3.5,-3.4 -5.3,-8.2 -4.7,-13.1c0.8,-7.3 6.6,-13.2 13.9,-14c0.6,-0.1 1.2,-0.1 1.8,-0.1c3.9,0 7.6,1.4 10.5,4c3.3,3 5.3,7.3 5.3,11.8c0,4.3 -1.7,8.4 -4.9,11.4c-2.4,2.3 -4,5.2 -4.8,8.2z" class="st0"/>
  <path fill="#9b9b9b" id="svg_3" d="m37,11c1.1,0 2,-0.9 2,-2l0,-6c0,-1.1 -0.9,-2 -2,-2s-2,0.9 -2,2l0,6c0,1.1 0.9,2 2,2z" class="st0"/>
  <path fill="#9b9b9b" id="svg_4" d="m17.1,18.1c0.4,0.4 0.9,0.6 1.4,0.6s1,-0.2 1.4,-0.6c0.8,-0.8 0.8,-2 0,-2.8l-4.2,-4.3c-0.8,-0.8 -2,-0.8 -2.8,0s-0.8,2 0,2.8l4.2,4.3z" class="st0"/>
  <path fill="#9b9b9b" id="svg_5" d="m12.9,35.2c0,-1.1 -0.9,-2 -2,-2l-6,0c-1.1,0 -2,0.9 -2,2s0.9,2 2,2l6,0c1.1,0 2,-0.9 2,-2z" class="st0"/>
  <path fill="#9b9b9b" id="svg_6" d="m17.1,52.2l-4.3,4.3c-0.8,0.8 -0.8,2 0,2.8c0.4,0.4 0.9,0.6 1.4,0.6s1,-0.2 1.4,-0.6l4.3,-4.3c0.8,-0.8 0.8,-2 0,-2.8s-2,-0.7 -2.8,0z" class="st0"/>
  <path fill="#9b9b9b" id="svg_7" d="m56.9,52.2c-0.8,-0.8 -2,-0.8 -2.8,0s-0.8,2 0,2.8l4.3,4.3c0.4,0.4 0.9,0.6 1.4,0.6s1,-0.2 1.4,-0.6c0.8,-0.8 0.8,-2 0,-2.8l-4.3,-4.3z" class="st0"/>
  <path fill="#9b9b9b" id="svg_8" d="m69.2,33.2l-6,0c-1.1,0 -2,0.9 -2,2s0.9,2 2,2l6,0c1.1,0 2,-0.9 2,-2s-0.9,-2 -2,-2z" class="st0"/>
  <path fill="#9b9b9b" id="svg_9" d="m55.5,18.7c0.5,0 1,-0.2 1.4,-0.6l4.3,-4.3c0.8,-0.8 0.8,-2 0,-2.8s-2,-0.8 -2.8,0l-4.3,4.3c-0.8,0.8 -0.8,2 0,2.8c0.4,0.4 0.9,0.6 1.4,0.6z" class="st0"/>
 </g>
</svg>