<svg width="24" height="24" xmlns="http://www.w3.org/2000/svg">

 <g>
  <title>background</title>
  <rect fill="none" id="canvas_background" height="402" width="582" y="-1" x="-1"/>
 </g>
 <g>
  <title>Layer 1</title>
  <path fill="#ffffff" id="svg_2" d="m5.2,21.964371c-0.4,0 -0.9,-0.1 -1.3,-0.2c-0.4,-0.1 -0.6,-0.3 -0.8,-0.5l-0.1,-0.1c-0.1,-0.1 -0.2,-0.3 -0.2,-0.4c0,-0.2 0.1,-0.3 0.3,-0.4c0.8,-0.4 1.5,-1.1 1.9,-1.9c0,-0.1 0,-0.2 0.1,-0.3c-2.8,-1.7 -4.4,-4.4 -4.4,-7.2c-0.1,-5 5,-9 11.3,-9c6.3,0 11.4,4 11.4,9s-5.1,9.1 -11.4,9.1c-0.6,0 -1.3,0 -1.9,-0.1c-1.5,1.3 -3.2,2 -4.9,2zm-1,-1.1c1.7,0.4 3.7,-0.3 5.5,-1.8c0,-0.1 0.2,-0.2 0.3,-0.1c0.6,0.1 1.3,0.1 2,0.1c5.7,0 10.4,-3.6 10.4,-8.1s-4.7,-8 -10.4,-8c-5.7,0 -10.4,3.6 -10.4,8c0,2.6 1.6,5 4.3,6.5c0.2,0.1 0.3,0.4 0.2,0.6c0,0.3 -0.1,0.6 -0.3,0.9c-0.4,0.8 -1,1.4 -1.6,1.9z"/>
 </g>
</svg>