<svg width="47.99999999999999" height="47.99999999999999" xmlns="http://www.w3.org/2000/svg">

 <g>
  <title>background</title>
  <rect fill="none" id="canvas_background" height="402" width="582" y="-1" x="-1"/>
 </g>
 <g>
  <title>Layer 1</title>
  <path id="svg_2" fill="none" d="m0,0l48,0l0,48l-48,0l0,-48z"/>
  <path fill="#ffffff" id="svg_1" d="m37.84,12.02c-0.41,-1.18 -1.53,-2.02 -2.84,-2.02l-22,0c-1.31,0 -2.43,0.84 -2.84,2.02l-4.16,11.98l0,16c0,1.1 0.9,2 2,2l2,0c1.11,0 2,-0.9 2,-2l0,-2l24,0l0,2c0,1.1 0.9,2 2,2l2,0c1.11,0 2,-0.9 2,-2l0,-16l-4.16,-11.98zm-24.84,19.98c-1.66,0 -3,-1.34 -3,-3s1.34,-3 3,-3s3,1.34 3,3s-1.34,3 -3,3zm22,0c-1.66,0 -3,-1.34 -3,-3s1.34,-3 3,-3s3,1.34 3,3s-1.34,3 -3,3zm-25,-10l3,-9l22,0l3,9l-28,0z"/>
 </g>
</svg>