<svg width="32" height="32" xmlns="http://www.w3.org/2000/svg">

 <g>
  <title>background</title>
  <rect fill="none" id="canvas_background" height="402" width="582" y="-1" x="-1"/>
 </g>
 <g>
  <title>Layer 1</title>
  <path fill="#ffffff" id="svg_1" d="m17.447,16.646c-0.367,-0.367 -0.718,-0.646 -1.447,-0.646s-1.135,0.334 -1.463,0.662l-3.957,3.958c-0.387,0.386 -0.58,0.849 -0.58,1.38c0,1.188 1.016,2 2,2c0.516,0 0.986,-0.186 1.38,-0.58l0.62,-0.62l0,7.2c0,1.104 0.896,2 2,2s2,-0.896 2,-2l0,-7.2l0.62,0.62c0.394,0.394 0.864,0.58 1.38,0.58c0.984,0 2,-0.813 2,-2c0,-0.531 -0.193,-0.994 -0.58,-1.38l-3.973,-3.974zm10.505,-7.596c-0.479,-5.077 -4.75,-9.05 -9.952,-9.05c-4.841,0 -8.878,3.441 -9.801,8.01c-0.066,-0.002 -0.132,-0.01 -0.199,-0.01c-4.418,0 -8,3.582 -8,8s3.582,8 8,8l0.557,0c-0.345,-0.591 -0.557,-1.269 -0.557,-2c0,-0.727 0.201,-1.399 0.562,-2l-0.562,0c-2.206,0 -4,-1.795 -4,-4c0,-2.178 1.75,-3.957 3.918,-4l3.534,0.107l0.668,-3.305c0.562,-2.782 3.035,-4.802 5.88,-4.802c3.111,0 5.678,2.332 5.97,5.426l0.195,2.069l1.806,1.03c1.252,0.713 2.029,2.045 2.029,3.475c0,2.205 -1.794,4 -4,4l-0.561,0c0.36,0.6 0.561,1.273 0.561,2c0,0.731 -0.212,1.409 -0.557,2l0.557,0c4.418,0 8,-3.582 8,-8c0,-2.979 -1.633,-5.573 -4.048,-6.95z"/>
 </g>
</svg>