<svg width="139" height="139" xmlns="http://www.w3.org/2000/svg">

 <g>
  <title>background</title>
  <rect fill="none" id="canvas_background" height="402" width="582" y="-1" x="-1"/>
 </g>
 <g>
  <title>Layer 1</title>
  <path fill="#ffffff" id="svg_1" d="m113.8,22.905l-13.514,0l0,-5.406c0,-3.215 -2.631,-5.845 -5.846,-5.845s-5.844,2.63 -5.844,5.845l0,5.406l-38.19,0l0,-5.406c0,-3.215 -2.63,-5.845 -5.845,-5.845s-5.845,2.63 -5.845,5.845l0,5.406l-13.514,0c-5.533,0 -10.035,4.501 -10.035,10.034l0,74.122c0,5.533 4.501,10.034 10.035,10.034l79.632,0c10.478,0 19,-8.522 19,-19l0,-65.156c0,-5.533 -4.501,-10.034 -10.034,-10.034zm-88.598,8l13.521,0c0.077,3.149 2.671,5.702 5.838,5.702c3.166,0 5.759,-2.553 5.837,-5.702l38.205,0c0.078,3.149 2.67,5.702 5.837,5.702s5.761,-2.553 5.839,-5.702l13.521,0c1.104,0 2.034,0.932 2.034,2.034l0,15.624l-92.667,0l0,-15.624c0,-1.103 0.932,-2.034 2.035,-2.034zm-2.035,76.156l0,-50.623l92.667,0l0,35.062l-16.347,0l-0.12,17.595l-74.165,0c-1.103,0 -2.035,-0.932 -2.035,-2.034zm84.203,1.727l0.064,-9.288l8.299,0c-0.585,4.558 -3.963,8.244 -8.363,9.288z"/>
  <path fill="#ffffff" id="svg_2" d="m46.491,75.32c0.04,-3.665 1.347,-6.345 3.445,-8.132c2.099,-1.743 4.951,-2.592 8.039,-2.592c7.999,0 10.652,5.363 10.652,7.998c0,6.524 -3.644,6.524 -3.644,6.658l0,0.089c0,0.358 4.514,0.358 4.514,7.284c0,3.798 -2.534,9.785 -11.563,9.785c-12.396,0 -12.434,-9.831 -12.236,-12.153l7.523,0c-0.04,1.654 0.317,2.903 1.069,3.708c0.752,1.027 1.901,1.386 3.287,1.386c2.257,0 3.683,-0.938 3.683,-3.485c0,-2.727 -1.861,-3.218 -3.683,-3.218c-1.149,0 -1.703,0.135 -2.297,0.225l0,-6.078c0.594,0.045 1.228,0.179 2.297,0.179c1.664,0 3.762,-0.401 3.762,-2.813c0,-1.967 -1.98,-2.727 -3.603,-2.727c-2.139,0 -3.881,1.295 -3.802,3.887l-7.443,0l0,-0.001z"/>
  <path fill="#ffffff" id="svg_3" d="m81.264,78.135l-6.455,0l0,-6.434c3.999,0.09 7.96,-1.607 8.196,-6.747l6.495,0l0,31.099l-8.236,0l0,-17.918z"/>
 </g>
</svg>