<svg 
xmlns="http://www.w3.org/2000/svg" 
width="500" 
height="500" 
viewBox="0 0 500 500">
<title>  Untitled</title>
<desc>  Created with Sketch.</desc>
<g fill="none">
<g fill="#FDD000">
<path d="M456.7 298.8C452.6 288.8 441.3 284 431.3 288 421.3 292.1 416.5 303.4 420.5 313.4L443.5 370.2 375.3 340.2C370.3 338 364.7 337.9 359.8 340.1 336.5 350 311.5 355 285.6 355 181.2 355 111.1 273.3 111.1 197 111.1 109.9 189.4 39 285.6 39 381.8 39 460 109.9 460 197 460 203.8 459.4 212 458.3 219.3 456.7 230 464.1 239.9 474.7 241.5 485.4 243.1 495.3 235.7 496.9 225.1 498.3 215.8 499 205.8 499 197 499 144.1 476.6 94.4 435.9 57.1 395.6 20.3 342.3 0 285.6 0 228.9 0 175.5 20.3 135.3 57.1 98.9 90.4 77.1 133.6 72.9 180.2 27.1 210.5 0 259.1 0 311.4 0 344.1 10.3 375.1 29.9 401.8L1.4 472.2C-1.6 479.6 0.2 488 5.9 493.5 9.6 497.1 14.5 499 19.5 499 22.2 499 24.8 498.5 27.4 497.4L109.5 461.2C130.1 468.9 151.9 472.8 174.5 472.8 175 472.8 175.4 472.7 175.9 472.7 208.5 472.4 240.2 463.9 267.6 447.8 292.2 433.5 312.4 413.7 326.6 390.4 340.4 387.9 354 384.2 367.1 379.1L471.7 425.2C474.2 426.4 476.9 426.9 479.5 426.9 484.5 426.9 489.4 425 493.1 421.4 498.8 415.9 500.6 407.5 497.6 400.1L456.7 298.8ZM174.5 433.7C174.2 433.7 173.9 433.8 173.7 433.8 153.8 433.7 134.6 429.7 116.7 422.1 111.8 420 106.1 420 101.2 422.2L55.6 442.3 70.3 405.9C73 399.2 71.8 391.5 67 386 48.7 364.4 39 338.6 39 311.4 39 280.3 52.1 250.8 75 228.4 82.2 267.3 102.3 304.5 132.7 333.8 170.5 370.1 220.5 391.2 274.5 393.8 249.1 418.7 212.9 433.7 174.5 433.7Z"/>
<circle cx="284.6" cy="197.9" r="19.5"/>
<circle cx="362.6" cy="197.9" r="19.5"/>
<circle cx="206.6" cy="197.9" r="19.5"/>
</g>
</g>
</svg>