<?xml version="1.0" encoding="UTF-8"?>
<svg xmlns="http://www.w3.org/2000/svg" xmlns:xlink="http://www.w3.org/1999/xlink" width="500px" height="500px" version="1.1" viewBox="0 0 500 500">
<!--Generator: Sketch 51.1 (57501) - http://www.bohemiancoding.com/sketch-->
    <title>
        Untitled
    </title>
    <desc>
        Created with Sketch.
    </desc>
    <defs/>
    <g id="Page-1" fill="none" fill-rule="evenodd" stroke="none" stroke-width="1">
        <g id="004-calendar" fill-rule="nonzero">
            <path id="Shape" fill="#FDD000" d="M421.875,39.0625 L396.484375,39.0625 L396.484375,19.53125 C396.484375,8.74414062 387.740234,0 376.953125,0 C366.166016,0 357.421875,8.74414062 357.421875,19.53125 L357.421875,39.0625 L268.554688,39.0625 L268.554688,19.53125 C268.554688,8.74414062 259.810547,0 249.023438,0 C238.236328,0 229.492188,8.74414062 229.492188,19.53125 L229.492188,39.0625 L141.601562,39.0625 L141.601562,19.53125 C141.601562,8.74414062 132.857422,0 122.070312,0 C111.283203,0 102.539062,8.74414062 102.539062,19.53125 L102.539062,39.0625 L78.125,39.0625 C35.046875,39.0625 0,74.109375 0,117.1875 L0,421.875 C0,464.953125 35.046875,500 78.125,500 L227.539062,500 C238.326172,500 247.070312,491.255859 247.070312,480.46875 C247.070312,469.681641 238.326172,460.9375 227.539062,460.9375 L78.125,460.9375 C56.5859375,460.9375 39.0625,443.414062 39.0625,421.875 L39.0625,117.1875 C39.0625,95.6484375 56.5859375,78.125 78.125,78.125 L102.539062,78.125 L102.539062,97.65625 C102.539062,108.443359 111.283203,117.1875 122.070312,117.1875 C132.857422,117.1875 141.601562,108.443359 141.601562,97.65625 L141.601562,78.125 L229.492188,78.125 L229.492188,97.65625 C229.492188,108.443359 238.236328,117.1875 249.023438,117.1875 C259.810547,117.1875 268.554688,108.443359 268.554688,97.65625 L268.554688,78.125 L357.421875,78.125 L357.421875,97.65625 C357.421875,108.443359 366.166016,117.1875 376.953125,117.1875 C387.740234,117.1875 396.484375,108.443359 396.484375,97.65625 L396.484375,78.125 L421.875,78.125 C443.414062,78.125 460.9375,95.6484375 460.9375,117.1875 L460.9375,228.515625 C460.9375,239.302734 469.681641,248.046875 480.46875,248.046875 C491.255859,248.046875 500,239.302734 500,228.515625 L500,117.1875 C500,74.109375 464.953125,39.0625 421.875,39.0625 Z"/>
            <path id="Shape" fill="#FDD000" d="M381.835938,263.671875 C316.679688,263.671875 263.671875,316.679688 263.671875,381.835938 C263.671875,446.992188 316.679688,500 381.835938,500 C446.992188,500 500,446.992188 500,381.835938 C500,316.679688 446.992188,263.671875 381.835938,263.671875 Z M381.835938,460.9375 C338.219727,460.9375 302.734375,425.453125 302.734375,381.835938 C302.734375,338.21875 338.219727,302.734375 381.835938,302.734375 C425.452148,302.734375 460.9375,338.21875 460.9375,381.835938 C460.9375,425.453125 425.452148,460.9375 381.835938,460.9375 Z"/>
            <path id="Shape" fill="#FDD000" d="M410.15625,362.304688 L401.367188,362.304688 L401.367188,341.796875 C401.367188,331.009766 392.623047,322.265625 381.835938,322.265625 C371.048828,322.265625 362.304688,331.009766 362.304688,341.796875 L362.304688,381.835938 C362.304688,392.623047 371.048828,401.367188 381.835938,401.367188 L410.15625,401.367188 C420.943359,401.367188 429.6875,392.623047 429.6875,381.835938 C429.6875,371.048828 420.943359,362.304688 410.15625,362.304688 Z"/>
            <circle id="Oval" cx="376.953125" cy="205.078125" r="19.53125" fill="#FDD000"/>
            <circle id="Oval" cx="291.992188" cy="205.078125" r="19.53125" fill="#FDD000"/>
            <circle id="Oval" cx="207.03125" cy="290.039062" r="19.53125" fill="#FDD000"/>
            <circle id="Oval" cx="122.070312" cy="205.078125" r="19.53125" fill="#FDD000"/>
            <circle id="Oval" cx="122.070312" cy="290.039062" r="19.53125" fill="#FDD000"/>
            <circle id="Oval" cx="122.070312" cy="375" r="19.53125" fill="#FDD000"/>
            <circle id="Oval" cx="207.03125" cy="375" r="19.53125" fill="#FDD000"/>
            <circle id="Oval" cx="207.03125" cy="205.078125" r="19.53125" fill="#FDD000"/>
        </g>
    </g>
</svg>
