<?xml version="1.0" encoding="UTF-8"?>
<svg width="500px" height="500px" viewBox="0 0 500 500" version="1.1" xmlns="http://www.w3.org/2000/svg" xmlns:xlink="http://www.w3.org/1999/xlink">
    <!-- Generator: Sketch 51.1 (57501) - http://www.bohemiancoding.com/sketch -->
    <title>Untitled</title>
    <desc>Created with Sketch.</desc>
    <defs></defs>
    <g id="Page-1" stroke="none" stroke-width="1" fill="none" fill-rule="evenodd">
        <g id="001-search" fill="#FDD000" fill-rule="nonzero">
            <path d="M199.924959,0 C89.6109299,0 0.16639478,86.6192733 0.16639478,193.447077 C0.16639478,300.275671 89.6109299,386.894945 199.924959,386.894945 C242.344209,386.894945 281.685155,374.080569 314.022023,352.255134 L465.08646,498.523697 C466.449429,499.844392 468.658238,499.844392 469.95106,498.614534 L498.411093,471.054502 C499.726754,469.780411 499.610114,467.595577 498.317292,466.342812 L349.225938,321.962875 C380.623165,287.803318 399.682708,242.78673 399.682708,193.446288 C399.683524,86.6192733 310.238989,0 199.924959,0 Z M199.924959,364.135861 C102.584013,364.135861 23.6672104,287.71248 23.6672104,193.447077 C23.6672104,99.1816746 102.583197,22.7590837 199.924959,22.7590837 C297.266721,22.7590837 376.181892,99.1816746 376.181892,193.447077 C376.181892,287.71248 297.265905,364.135861 199.924959,364.135861 Z" id="Shape"></path>
        </g>
    </g>
</svg>