<?xml version="1.0" encoding="UTF-8"?>
<svg width="472px" height="472px" viewBox="0 0 472 472" version="1.1" xmlns="http://www.w3.org/2000/svg" xmlns:xlink="http://www.w3.org/1999/xlink">
    <!-- Generator: Sketch 51.1 (57501) - http://www.bohemiancoding.com/sketch -->
    <title>Untitled</title>
    <desc>Created with Sketch.</desc>
    <defs></defs>
    <g id="Page-1" stroke="none" stroke-width="1" fill="none" fill-rule="evenodd">
        <g id="yellow_search">
            <path d="M335.263158,294.789474 L314.473684,294.789474 L307.105263,287.684211 C332.894737,257.684211 348.421053,218.736842 348.421053,176.368421 C348.421053,81.8947368 271.842105,5.31578947 177.368421,5.31578947 C82.8947368,5.31578947 6.31578947,81.8947368 6.31578947,176.368421 C6.31578947,270.842105 82.8947368,347.421053 177.368421,347.421053 C219.736842,347.421053 258.684211,331.894737 288.684211,306.105263 L295.789474,313.473684 L295.789474,334.263158 L427.368421,465.578947 L466.578947,426.368421 L335.263158,294.789474 Z M177.368421,294.789474 C111.842105,294.789474 58.9473684,241.894737 58.9473684,176.368421 C58.9473684,110.842105 111.842105,57.9473684 177.368421,57.9473684 C242.894737,57.9473684 295.789474,110.842105 295.789474,176.368421 C295.789474,241.894737 242.894737,294.789474 177.368421,294.789474 Z" id="Shape" fill="#FDD000" fill-rule="nonzero"></path>
            <polygon id="Shape" points="0 0 472 0 472 472 0 472"></polygon>
        </g>
    </g>
</svg>